# Blender v2.77 (sub 0) OBJ File: ''
# www.blender.org
mtllib bed02.mtl
o Cube.001_Cube.002
v -1.034900 -0.677510 -3.049891
v -1.034900 1.322490 -3.049891
v -1.034900 -0.677510 -3.349891
v -1.034900 1.322490 -3.349891
v 1.065100 -0.677510 -3.049891
v 1.065100 1.322490 -3.049891
v 1.065100 -0.677510 -3.349891
v 1.065100 1.322490 -3.349891
v -1.034896 -0.793212 2.820134
v -1.034896 0.806788 2.820134
v -1.034896 -0.793212 2.520134
v -1.034896 0.806788 2.520134
v 1.065104 -0.793212 2.820134
v 1.065104 0.806788 2.820134
v 1.065104 -0.793212 2.520134
v 1.065104 0.806788 2.520134
v -0.977154 0.086215 2.698203
v -0.977154 0.386215 2.698203
v -0.977154 0.086215 -3.301798
v -0.977154 0.386215 -3.301798
v 1.022846 0.086215 2.698203
v 1.022846 0.386215 2.698203
v 1.022846 0.086215 -3.301798
v 1.022846 0.386215 -3.301798
vn -1.0000 0.0000 0.0000
vn 0.0000 0.0000 -1.0000
vn 1.0000 0.0000 0.0000
vn 0.0000 0.0000 1.0000
vn 0.0000 -1.0000 0.0000
vn 0.0000 1.0000 0.0000
usemtl Material.003
s off
f 2//1 4//1 3//1 1//1
f 4//2 8//2 7//2 3//2
f 8//3 6//3 5//3 7//3
f 6//4 2//4 1//4 5//4
f 1//5 3//5 7//5 5//5
f 6//6 8//6 4//6 2//6
f 10//1 12//1 11//1 9//1
f 12//2 16//2 15//2 11//2
f 16//3 14//3 13//3 15//3
f 14//4 10//4 9//4 13//4
f 9//5 11//5 15//5 13//5
f 14//6 16//6 12//6 10//6
usemtl Material.002
f 18//1 20//1 19//1 17//1
f 20//2 24//2 23//2 19//2
f 24//3 22//3 21//3 23//3
f 22//4 18//4 17//4 21//4
f 17//5 19//5 23//5 21//5
f 22//6 24//6 20//6 18//6
