# Blender v2.77 (sub 0) OBJ File: 'StylishDesk.blend'
# www.blender.org
mtllib desk.mtl
o Cube_Cube.001
v -1.000000 1.279588 1.470378
v -1.000000 1.279588 -1.470378
v 1.000000 1.279588 -1.470378
v 1.000000 1.279588 1.470378
v -1.000000 1.319957 1.470378
v -1.000000 1.319957 -1.470378
v 1.000000 1.319957 -1.470378
v 1.000000 1.319957 1.470378
v 0.900000 1.542897 -1.470378
v 0.900000 1.502528 -1.470378
v 0.900000 1.542897 1.470378
v 0.900000 1.502528 1.470378
v -0.905000 1.502528 -1.470378
v -0.905000 1.542897 1.470378
v -0.905000 1.542897 -1.470378
v -0.905000 1.502528 1.470378
v -1.000000 1.542897 1.323340
v -1.000000 1.502528 1.323340
v 1.000000 1.542897 1.323340
v 1.000000 1.502528 1.323340
v 0.900000 1.502528 1.323340
v 0.900000 1.542897 1.323340
v -0.905000 1.542897 1.323340
v -0.905000 1.502528 1.323340
v -1.000000 1.542897 -1.330692
v 1.000000 1.502528 -1.330692
v -1.000000 1.502528 -1.330692
v 1.000000 1.542897 -1.330692
v 0.900000 1.502528 -1.330692
v 0.900000 1.542897 -1.330692
v -0.905000 1.542897 -1.330692
v -0.905000 1.502528 -1.330692
v -1.000000 0.001545 1.470378
v -1.000000 0.001545 -1.470378
v 1.000000 0.001545 -1.470378
v 1.000000 0.001545 1.470378
v 0.900000 0.001545 -1.470378
v 0.900000 0.001545 1.470378
v -0.905000 0.001545 -1.470378
v -0.905000 0.001545 1.470378
v -1.000000 0.001545 1.323340
v 1.000000 0.001545 1.323340
v 0.900000 0.001545 1.323340
v -0.905000 0.001545 1.323340
v 1.000000 0.001545 -1.330692
v -1.000000 0.001545 -1.330692
v 0.900000 0.001545 -1.330692
v -0.905000 0.001545 -1.330692
vn -1.0000 0.0000 0.0000
vn -0.0000 0.0000 -1.0000
vn 1.0000 0.0000 0.0000
vn 0.0000 0.0000 1.0000
vn -0.6759 0.5760 -0.4597
vn 0.0000 -1.0000 0.0000
vn 0.6569 0.5893 -0.4703
vn 0.0000 1.0000 0.0000
vn -0.6830 0.5821 0.4413
vn 0.6641 0.5958 0.4517
usemtl Material.001
s off
f 25//1 6//1 2//1 27//1
f 9//2 7//2 3//2 10//2
f 19//3 8//3 4//3 20//3
f 14//4 5//4 1//4 16//4
f 32//4 27//4 46//4 48//4
f 31//5 15//5 6//5 25//5
f 15//2 9//2 10//2 13//2
f 8//4 11//4 12//4 4//4
f 32//6 13//6 10//6 29//6
f 28//7 7//7 9//7 30//7
f 11//4 14//4 16//4 12//4
f 30//8 9//8 15//8 31//8
f 6//2 15//2 13//2 2//2
f 21//2 20//2 42//2 43//2
f 5//1 17//1 18//1 1//1
f 28//3 19//3 20//3 26//3
f 12//1 21//1 43//1 38//1
f 14//9 23//9 17//9 5//9
f 16//6 24//6 21//6 12//6
f 8//10 19//10 22//10 11//10
f 11//8 22//8 23//8 14//8
f 2//2 13//2 39//2 34//2
f 17//1 25//1 27//1 18//1
f 21//6 29//6 26//6 20//6
f 23//8 31//8 25//8 17//8
f 19//8 28//8 30//8 22//8
f 18//6 27//6 32//6 24//6
f 7//3 28//3 26//3 3//3
f 47//6 37//6 35//6 45//6
f 46//6 34//6 39//6 48//6
f 38//6 43//6 42//6 36//6
f 33//6 41//6 44//6 40//6
f 4//4 12//4 38//4 36//4
f 20//3 4//3 36//3 42//3
f 24//3 16//3 40//3 44//3
f 1//1 18//1 41//1 33//1
f 18//2 24//2 44//2 41//2
f 16//4 1//4 33//4 40//4
f 13//3 32//3 48//3 39//3
f 29//1 10//1 37//1 47//1
f 10//2 3//2 35//2 37//2
f 26//4 29//4 47//4 45//4
f 3//3 26//3 45//3 35//3
f 27//1 2//1 34//1 46//1
usemtl Material.002
f 24//6 32//6 29//6 21//6
f 22//8 30//8 31//8 23//8
